<?xml version="1.0" standalone="no"?>
<!DOCTYPE svg PUBLIC "-//W3C//DTD SVG 20010904//EN"
 "http://www.w3.org/TR/2001/REC-SVG-20010904/DTD/svg10.dtd">
<svg version="1.0" xmlns="http://www.w3.org/2000/svg"
 width="313.000000pt" height="313.000000pt" viewBox="0 0 313.000000 313.000000"
 preserveAspectRatio="xMidYMid meet">
<metadata>
Created by potrace 1.14, written by Peter Selinger 2001-2017
</metadata>
<g transform="translate(0.000000,313.000000) scale(0.100000,-0.100000)"
fill="#000000" stroke="none">
<path d="M2231 1950 l-2 -50 374 0 374 0 -1 -371 c-1 -204 1 -374 4 -378 3 -3
25 -6 50 -6 l45 0 1 428 1 427 -422 0 -421 0 -3 -50z"/>
<path d="M722 1722 c-9 -3 -12 -49 -12 -168 0 -151 -2 -166 -20 -184 -32 -32
-93 -30 -128 4 -22 22 -24 30 -23 145 l0 121 -45 0 -44 0 0 -125 c0 -84 5
-136 14 -158 49 -116 231 -130 310 -24 19 26 21 44 24 208 1 137 -1 179 -10
180 -7 0 -22 2 -33 3 -12 1 -26 1 -33 -2z"/>
<path d="M1090 1719 c-140 -16 -203 -82 -206 -219 -2 -109 33 -174 115 -211
54 -24 230 -40 232 -20 2 14 2 47 0 64 -1 8 -25 12 -79 13 -92 1 -127 16 -160
64 -20 30 -23 44 -19 91 5 64 19 90 57 113 38 22 101 31 110 16 4 -7 6 -30 5
-51 -2 -21 0 -39 4 -40 41 -5 73 -4 78 4 9 14 10 156 1 170 -8 12 -59 15 -138
6z"/>
<path d="M1319 1718 c-1 -5 -1 -19 -1 -33 0 -14 0 -29 1 -34 1 -6 241 -8 272
-2 5 1 5 15 0 66 -1 12 -270 14 -272 3z"/>
<path d="M1729 1720 c0 -3 -1 -88 -2 -190 l-2 -185 -27 -3 c-25 -3 -28 -7 -28
-43 l0 -39 100 0 100 0 0 40 c0 37 -2 40 -28 40 l-28 0 1 190 c0 105 -2 190
-5 191 -19 4 -80 3 -81 -1z"/>
<path d="M2131 1719 c-112 -15 -187 -106 -185 -226 1 -147 107 -246 246 -230
127 15 210 127 194 260 -16 132 -123 214 -255 196z m105 -98 c62 -38 83 -140
43 -210 -25 -45 -47 -60 -99 -67 -63 -9 -123 33 -141 98 -20 75 8 153 66 186
31 17 97 14 131 -7z"/>
<path d="M2143 1525 c-34 -24 -19 -75 21 -75 47 0 60 50 21 76 -18 12 -24 11
-42 -1z"/>
<path d="M2477 1716 c-1 -6 -3 -85 -2 -176 l0 -165 45 -3 46 -3 -1 95 c-1 52
2 93 5 91 3 -2 32 -42 65 -90 151 -217 141 -206 188 -203 l42 3 0 230 0 229
-38 1 c-21 1 -41 -3 -44 -9 -4 -6 -6 -75 -6 -154 l1 -144 -105 149 c-57 81
-106 150 -108 151 -9 10 -85 7 -88 -2z"/>
<path d="M170 1694 c-22 -59 -73 -192 -116 -302 -24 -62 -44 -117 -44 -122 0
-6 19 -10 43 -10 l42 0 44 126 c24 69 47 122 51 117 5 -4 26 -60 48 -123 l39
-115 48 -3 c36 -2 46 0 42 10 -2 7 -41 107 -86 223 -45 115 -86 214 -91 219
-6 6 -13 -2 -20 -20z"/>
<path d="M1416 1553 c-3 -4 -6 -71 -6 -150 l0 -143 45 0 46 0 -3 147 -3 147
-36 2 c-21 2 -40 0 -43 -3z"/>
</g>
</svg>
